<svg width="97" height="97" viewBox="0 0 97 97" fill="none" xmlns="http://www.w3.org/2000/svg">
<g clip-path="url(#clip0_26_40)">
<path fill-rule="evenodd" clip-rule="evenodd" d="M48.606 0.605988C22.1388 0.605988 0.605957 22.1388 0.605957 48.606C0.605957 75.0731 22.1388 96.606 48.606 96.606C75.0731 96.606 96.606 75.0731 96.606 48.606C96.606 22.1388 75.0731 0.605988 48.606 0.605988Z" fill="#EEEEEE"/>
<path fill-rule="evenodd" clip-rule="evenodd" d="M81.7024 43.55C78.4967 46.7558 73.2801 46.7555 70.0744 43.55L66.317 47.3071C68.2478 49.2382 70.6223 50.4593 73.115 50.9774C71.9178 63.4473 61.3847 73.2316 48.6059 73.2316C35.8275 73.2316 25.2944 63.4473 24.0968 50.9774C26.5895 50.4593 28.964 49.2382 30.8949 47.3071L27.1375 43.55C23.9318 46.7558 18.7152 46.7555 15.5095 43.55L11.7524 47.3071C13.7387 49.2933 16.1936 50.5317 18.7647 51.0229C19.9994 66.4053 32.911 78.5451 48.6059 78.5451C64.3008 78.5451 77.2128 66.4053 78.4472 51.0229C81.0183 50.5317 83.4735 49.2933 85.4594 47.3071L81.7024 43.55Z" fill="#BBBBBB"/>
<path fill-rule="evenodd" clip-rule="evenodd" d="M38.487 48.2174C40.6905 48.2174 42.4765 42.4439 42.4765 35.3221C42.4765 28.2003 40.6905 22.4268 38.487 22.4268C36.2836 22.4268 34.4976 28.2003 34.4976 35.3221C34.4976 42.4439 36.2836 48.2174 38.487 48.2174ZM58.7246 48.2174C60.9281 48.2174 62.7141 42.4439 62.7141 35.3221C62.7141 28.2003 60.9281 22.4268 58.7246 22.4268C56.5211 22.4268 54.7351 28.2003 54.7351 35.3221C54.7351 42.4439 56.5211 48.2174 58.7246 48.2174Z" fill="#BBBBBB"/>
</g>
<defs>
<clipPath id="clip0_26_40">
<rect width="97" height="97" fill="white"/>
</clipPath>
</defs>
</svg>
