<svg width="248" height="35" viewBox="0 0 248 35" fill="none" xmlns="http://www.w3.org/2000/svg">
<g clip-path="url(#clip0_206_7)">
<rect width="248" height="35" fill="white"/>
<path d="M3.168 34V0.399998H24.768V6.16H9.504V14.176H23.424V19.936H9.504V28.24H25.056V34H3.168ZM28.7861 34V25.936L45.3941 6.832V6.064H29.2661V0.399998H52.0181V8.464L35.4101 27.568V28.336H52.1141V34H28.7861Z" fill="#1D4ED8"/>
<path d="M69.5899 34V0.399998H84.1819C86.2939 0.399998 88.1339 0.767998 89.7019 1.504C91.2699 2.24 92.4859 3.28 93.3499 4.624C94.2139 5.968 94.6459 7.552 94.6459 9.376V9.952C94.6459 11.968 94.1659 13.6 93.2059 14.848C92.2459 16.096 91.0619 17.008 89.6539 17.584V18.448C90.9339 18.512 91.9259 18.96 92.6299 19.792C93.3339 20.592 93.6859 21.664 93.6859 23.008V34H87.3499V23.92C87.3499 23.152 87.1419 22.528 86.7259 22.048C86.3419 21.568 85.6859 21.328 84.7579 21.328H75.9259V34H69.5899ZM75.9259 15.568H83.5099C85.0139 15.568 86.1819 15.168 87.0139 14.368C87.8779 13.536 88.3099 12.448 88.3099 11.104V10.624C88.3099 9.28 87.8939 8.208 87.0619 7.408C86.2299 6.576 85.0459 6.16 83.5099 6.16H75.9259V15.568ZM110.958 34.672C108.59 34.672 106.494 34.176 104.67 33.184C102.878 32.16 101.47 30.736 100.446 28.912C99.454 27.056 98.958 24.88 98.958 22.384V21.808C98.958 19.312 99.454 17.152 100.446 15.328C101.438 13.472 102.83 12.048 104.622 11.056C106.414 10.032 108.494 9.52 110.862 9.52C113.198 9.52 115.23 10.048 116.958 11.104C118.686 12.128 120.03 13.568 120.99 15.424C121.95 17.248 122.43 19.376 122.43 21.808V23.872H105.102C105.166 25.504 105.774 26.832 106.926 27.856C108.078 28.88 109.486 29.392 111.15 29.392C112.846 29.392 114.094 29.024 114.894 28.288C115.694 27.552 116.302 26.736 116.718 25.84L121.662 28.432C121.214 29.264 120.558 30.176 119.694 31.168C118.862 32.128 117.742 32.96 116.334 33.664C114.926 34.336 113.134 34.672 110.958 34.672ZM105.15 19.36H116.286C116.158 17.984 115.598 16.88 114.606 16.048C113.646 15.216 112.382 14.8 110.814 14.8C109.182 14.8 107.886 15.216 106.926 16.048C105.966 16.88 105.374 17.984 105.15 19.36ZM137.701 34.672C134.597 34.672 132.053 34 130.069 32.656C128.085 31.312 126.885 29.392 126.469 26.896L132.037 25.456C132.261 26.576 132.629 27.456 133.141 28.096C133.685 28.736 134.341 29.2 135.109 29.488C135.909 29.744 136.773 29.872 137.701 29.872C139.109 29.872 140.149 29.632 140.821 29.152C141.493 28.64 141.829 28.016 141.829 27.28C141.829 26.544 141.509 25.984 140.869 25.6C140.229 25.184 139.205 24.848 137.797 24.592L136.453 24.352C134.789 24.032 133.269 23.6 131.893 23.056C130.517 22.48 129.413 21.696 128.581 20.704C127.749 19.712 127.333 18.432 127.333 16.864C127.333 14.496 128.197 12.688 129.925 11.44C131.653 10.16 133.925 9.52 136.741 9.52C139.397 9.52 141.605 10.112 143.365 11.296C145.125 12.48 146.277 14.032 146.821 15.952L141.205 17.68C140.949 16.464 140.421 15.6 139.621 15.088C138.853 14.576 137.893 14.32 136.741 14.32C135.589 14.32 134.709 14.528 134.101 14.944C133.493 15.328 133.189 15.872 133.189 16.576C133.189 17.344 133.509 17.92 134.149 18.304C134.789 18.656 135.653 18.928 136.741 19.12L138.085 19.36C139.877 19.68 141.493 20.112 142.933 20.656C144.405 21.168 145.557 21.92 146.389 22.912C147.253 23.872 147.685 25.184 147.685 26.848C147.685 29.344 146.773 31.28 144.949 32.656C143.157 34 140.741 34.672 137.701 34.672ZM162.057 34.384C160.201 34.384 158.569 33.968 157.161 33.136C155.785 32.272 154.713 31.088 153.945 29.584C153.177 28.08 152.793 26.352 152.793 24.4V10.192H158.841V23.92C158.841 25.712 159.273 27.056 160.137 27.952C161.033 28.848 162.297 29.296 163.929 29.296C165.785 29.296 167.225 28.688 168.249 27.472C169.273 26.224 169.785 24.496 169.785 22.288V10.192H175.833V34H169.881V30.88H169.017C168.633 31.68 167.913 32.464 166.857 33.232C165.801 34 164.201 34.384 162.057 34.384ZM182.563 34V10.192H188.515V12.784H189.379C189.795 11.984 190.483 11.296 191.443 10.72C192.403 10.112 193.667 9.808 195.235 9.808C196.931 9.808 198.291 10.144 199.315 10.816C200.339 11.456 201.123 12.304 201.667 13.36H202.531C203.075 12.336 203.843 11.488 204.835 10.816C205.827 10.144 207.235 9.808 209.059 9.808C210.531 9.808 211.859 10.128 213.043 10.768C214.259 11.376 215.219 12.32 215.923 13.6C216.659 14.848 217.027 16.432 217.027 18.352V34H210.979V18.784C210.979 17.472 210.643 16.496 209.971 15.856C209.299 15.184 208.355 14.848 207.139 14.848C205.763 14.848 204.691 15.296 203.923 16.192C203.187 17.056 202.819 18.304 202.819 19.936V34H196.771V18.784C196.771 17.472 196.435 16.496 195.763 15.856C195.091 15.184 194.147 14.848 192.931 14.848C191.555 14.848 190.483 15.296 189.715 16.192C188.979 17.056 188.611 18.304 188.611 19.936V34H182.563ZM234.38 34.672C232.012 34.672 229.916 34.176 228.092 33.184C226.3 32.16 224.892 30.736 223.868 28.912C222.876 27.056 222.38 24.88 222.38 22.384V21.808C222.38 19.312 222.876 17.152 223.868 15.328C224.86 13.472 226.252 12.048 228.044 11.056C229.836 10.032 231.916 9.52 234.284 9.52C236.62 9.52 238.652 10.048 240.38 11.104C242.108 12.128 243.452 13.568 244.412 15.424C245.372 17.248 245.852 19.376 245.852 21.808V23.872H228.524C228.588 25.504 229.196 26.832 230.348 27.856C231.5 28.88 232.908 29.392 234.572 29.392C236.268 29.392 237.516 29.024 238.316 28.288C239.116 27.552 239.724 26.736 240.14 25.84L245.084 28.432C244.636 29.264 243.98 30.176 243.116 31.168C242.284 32.128 241.164 32.96 239.756 33.664C238.348 34.336 236.556 34.672 234.38 34.672ZM228.572 19.36H239.708C239.58 17.984 239.02 16.88 238.028 16.048C237.068 15.216 235.804 14.8 234.236 14.8C232.604 14.8 231.308 15.216 230.348 16.048C229.388 16.88 228.796 17.984 228.572 19.36Z" fill="#333333"/>
</g>
<defs>
<clipPath id="clip0_206_7">
<rect width="248" height="35" fill="white"/>
</clipPath>
</defs>
</svg>
