<svg width="500" height="500" viewBox="0 0 500 500" fill="none" xmlns="http://www.w3.org/2000/svg">
<g clip-path="url(#clip0_2245_4430)">
<path d="M500 0H0V500H500V0Z" fill="white"/>
<path d="M412.35 72.22C411.52 72.22 410.85 71.55 410.85 70.72V61.77C410.85 60.94 411.52 60.27 412.35 60.27C413.18 60.27 413.85 60.94 413.85 61.77V70.72C413.85 71.55 413.18 72.22 412.35 72.22Z" fill="#2D3962"/>
<path d="M416.829 67.74H407.879C407.049 67.74 406.379 67.07 406.379 66.24C406.379 65.41 407.049 64.74 407.879 64.74H416.829C417.659 64.74 418.329 65.41 418.329 66.24C418.329 67.07 417.659 67.74 416.829 67.74Z" fill="#2D3962"/>
<path d="M453.65 430.67C453.65 431.97 452.59 433.03 451.29 433.03C449.99 433.03 448.93 431.97 448.93 430.67C448.93 429.37 449.99 428.31 451.29 428.31C452.59 428.31 453.65 429.37 453.65 430.67Z" fill="#2D3962"/>
<path d="M451.299 434.03C449.449 434.03 447.939 432.52 447.939 430.67C447.939 428.82 449.449 427.31 451.299 427.31C453.149 427.31 454.659 428.82 454.659 430.67C454.659 432.52 453.149 434.03 451.299 434.03ZM451.299 429.32C450.549 429.32 449.939 429.93 449.939 430.68C449.939 431.43 450.549 432.04 451.299 432.04C452.049 432.04 452.659 431.43 452.659 430.68C452.659 429.93 452.049 429.32 451.299 429.32Z" fill="#2D3962"/>
<path d="M42.7891 417.4C41.9591 417.4 41.2891 416.73 41.2891 415.9V406.95C41.2891 406.12 41.9591 405.45 42.7891 405.45C43.6191 405.45 44.2891 406.12 44.2891 406.95V415.9C44.2891 416.73 43.6191 417.4 42.7891 417.4Z" fill="#2D3962"/>
<path d="M47.2684 412.92H38.3184C37.4884 412.92 36.8184 412.25 36.8184 411.42C36.8184 410.59 37.4884 409.92 38.3184 409.92H47.2684C48.0984 409.92 48.7684 410.59 48.7684 411.42C48.7684 412.25 48.0984 412.92 47.2684 412.92Z" fill="#2D3962"/>
<path d="M265.229 44.22C266.533 44.22 267.589 43.1634 267.589 41.86C267.589 40.5566 266.533 39.5 265.229 39.5C263.926 39.5 262.869 40.5566 262.869 41.86C262.869 43.1634 263.926 44.22 265.229 44.22Z" fill="#2D3962"/>
<path d="M265.229 45.22C263.379 45.22 261.869 43.71 261.869 41.86C261.869 40.01 263.379 38.5 265.229 38.5C267.079 38.5 268.589 40.01 268.589 41.86C268.589 43.71 267.079 45.22 265.229 45.22ZM265.229 40.51C264.479 40.51 263.869 41.12 263.869 41.87C263.869 42.62 264.479 43.23 265.229 43.23C265.979 43.23 266.589 42.62 266.589 41.87C266.589 41.12 265.979 40.51 265.229 40.51Z" fill="#2D3962"/>
<path d="M275 470.65C274.17 470.65 273.5 469.98 273.5 469.15V460.2C273.5 459.37 274.17 458.7 275 458.7C275.83 458.7 276.5 459.37 276.5 460.2V469.15C276.5 469.98 275.83 470.65 275 470.65Z" fill="#2D3962"/>
<path d="M279.479 466.17H270.529C269.699 466.17 269.029 465.5 269.029 464.67C269.029 463.84 269.699 463.17 270.529 463.17H279.479C280.309 463.17 280.979 463.84 280.979 464.67C280.979 465.5 280.309 466.17 279.479 466.17Z" fill="#2D3962"/>
<path d="M27.8391 279.46C27.8391 280.76 26.7791 281.82 25.4791 281.82C24.1791 281.82 23.1191 280.76 23.1191 279.46C23.1191 278.16 24.1791 277.1 25.4791 277.1C26.7791 277.1 27.8391 278.16 27.8391 279.46Z" fill="#2D3962"/>
<path d="M25.4791 282.82C23.6291 282.82 22.1191 281.31 22.1191 279.46C22.1191 277.61 23.6291 276.1 25.4791 276.1C27.3291 276.1 28.8391 277.61 28.8391 279.46C28.8391 281.31 27.3291 282.82 25.4791 282.82ZM25.4791 278.11C24.7291 278.11 24.1191 278.72 24.1191 279.47C24.1191 280.22 24.7291 280.83 25.4791 280.83C26.2291 280.83 26.8391 280.22 26.8391 279.47C26.8391 278.72 26.2291 278.11 25.4791 278.11Z" fill="#2D3962"/>
<path d="M71.0195 60.67C70.1895 60.67 69.5195 60 69.5195 59.17V50.22C69.5195 49.39 70.1895 48.72 71.0195 48.72C71.8495 48.72 72.5195 49.39 72.5195 50.22V59.17C72.5195 60 71.8495 60.67 71.0195 60.67Z" fill="#2D3962"/>
<path d="M75.4988 56.1899H66.5488C65.7188 56.1899 65.0488 55.5199 65.0488 54.6899C65.0488 53.8599 65.7188 53.1899 66.5488 53.1899H75.4988C76.3288 53.1899 76.9988 53.8599 76.9988 54.6899C76.9988 55.5199 76.3288 56.1899 75.4988 56.1899Z" fill="#2D3962"/>
<path d="M262.818 311.55L96.8182 353.54C90.5382 355.13 84.1682 351.33 82.5782 345.05L24.5082 115.45C22.9182 109.17 26.7182 102.8 32.9982 101.21L198.998 59.22C205.278 57.63 211.648 61.43 213.238 67.71L271.318 297.31C272.908 303.59 269.108 309.96 262.828 311.55H262.818Z" fill="white"/>
<g filter="url(#filter0_d_2245_4430)">
<path d="M262.818 311.55L96.8182 353.54C90.5382 355.13 84.1682 351.33 82.5782 345.05L24.5082 115.45C22.9182 109.17 26.7182 102.8 32.9982 101.21L198.998 59.22C205.278 57.63 211.648 61.43 213.238 67.71L271.318 297.31C272.908 303.59 269.108 309.96 262.828 311.55H262.818Z" fill="white"/>
</g>
<path d="M166.79 150.73C174.926 130.47 165.098 107.452 144.839 99.3157C124.579 91.1798 101.561 101.008 93.4248 121.267C85.2888 141.526 95.1167 164.545 115.376 172.681C135.635 180.817 158.654 170.989 166.79 150.73Z" fill="#FFB0D7"/>
<mask id="mask0_2245_4430" style="mask-type:luminance" maskUnits="userSpaceOnUse" x="90" y="96" width="80" height="80">
<path d="M166.79 150.73C174.926 130.47 165.098 107.452 144.839 99.3157C124.579 91.1798 101.561 101.008 93.4248 121.267C85.2888 141.526 95.1167 164.545 115.376 172.681C135.635 180.817 158.654 170.989 166.79 150.73Z" fill="white"/>
</mask>
<g mask="url(#mask0_2245_4430)">
<path d="M123.767 110.4C124.047 111.51 123.377 112.63 122.267 112.91C121.157 113.19 120.037 112.52 119.757 111.41C119.477 110.3 120.147 109.18 121.257 108.9C122.367 108.62 123.487 109.29 123.767 110.4Z" fill="#2D3962"/>
<path d="M120.057 183.96C120.057 183.96 116.437 163.05 122.787 156.86C125.477 154.23 129.757 152.74 134.657 151.46C139.587 150.17 144.417 149.58 147.317 150.21C155.027 151.9 163.337 172.89 163.337 172.89L120.057 183.95V183.96Z" fill="#76ADA0"/>
<path d="M127.698 181.89C127.498 181.89 127.328 181.74 127.308 181.54L126.408 174.24C126.378 174.02 126.538 173.83 126.748 173.8C126.968 173.78 127.158 173.93 127.188 174.14L128.088 181.44C128.118 181.66 127.958 181.85 127.748 181.88C127.728 181.88 127.718 181.88 127.698 181.88V181.89Z" fill="#2D3962"/>
<path d="M155.417 174.91C155.257 174.91 155.107 174.81 155.047 174.66L152.377 167.8C152.297 167.6 152.397 167.37 152.597 167.29C152.797 167.21 153.027 167.31 153.107 167.51L155.777 174.37C155.857 174.57 155.757 174.8 155.557 174.88C155.507 174.9 155.457 174.91 155.417 174.91Z" fill="#2D3962"/>
<path d="M135.256 149.68C113.986 156.1 109.796 132.61 109.396 129.98C109.366 129.81 109.336 129.64 109.306 129.47L109.236 129.15C108.346 125.02 110.736 120.9 114.756 119.6L132.256 113.95C136.336 112.64 140.866 114.64 142.486 118.6C146.426 128.21 150.726 145.01 135.266 149.68H135.256Z" fill="#F4D1BB"/>
<path d="M134.716 131.31C134.846 132.14 134.276 132.93 133.446 133.06C132.616 133.19 131.826 132.62 131.696 131.79C131.566 130.96 132.136 130.17 132.966 130.04C133.796 129.91 134.586 130.48 134.716 131.31Z" fill="#2D3962"/>
<path d="M123.417 133.69C123.387 132.85 124.037 132.13 124.887 132.1C125.727 132.07 126.447 132.72 126.477 133.57C126.507 134.41 125.857 135.13 125.007 135.16C124.167 135.19 123.447 134.54 123.417 133.69Z" fill="#2D3962"/>
<path d="M144.316 127.53C145.896 126.71 148.886 125.24 150.506 126.32C151.876 127.24 152.086 129.2 151.046 130.54C149.346 132.73 145.836 133.88 144.806 134.29" fill="#F4D1BB"/>
<path d="M147.147 128.71C147.017 128.71 146.897 128.65 146.817 128.53C146.697 128.35 146.747 128.11 146.927 127.99C146.977 127.96 148.057 127.25 149.717 127.69C149.927 127.75 150.057 127.96 149.997 128.17C149.937 128.38 149.727 128.51 149.517 128.45C148.217 128.11 147.397 128.62 147.367 128.64C147.297 128.68 147.227 128.7 147.147 128.7V128.71Z" fill="#2D3962"/>
<path d="M148.097 130.43C148.037 130.43 147.967 130.41 147.917 130.38C147.727 130.28 147.647 130.04 147.757 129.85C147.757 129.85 148.067 129.26 148.327 128.18C148.377 127.97 148.597 127.84 148.807 127.89C149.017 127.94 149.147 128.15 149.097 128.37C148.807 129.56 148.477 130.2 148.457 130.23C148.387 130.36 148.247 130.44 148.107 130.44L148.097 130.43Z" fill="#2D3962"/>
<path d="M112.287 136.69C110.517 136.83 107.197 137.16 106.387 138.93C105.707 140.43 106.567 142.21 108.157 142.8C110.757 143.76 114.347 142.88 115.437 142.69" fill="#F4D1BB"/>
<path d="M108.066 140.34C107.966 140.34 107.876 140.3 107.796 140.23C107.636 140.08 107.626 139.83 107.776 139.67C108.956 138.42 110.256 138.45 110.306 138.45C110.526 138.45 110.696 138.64 110.686 138.86C110.686 139.08 110.486 139.26 110.276 139.24C110.236 139.24 109.266 139.24 108.346 140.21C108.266 140.29 108.166 140.33 108.056 140.33L108.066 140.34Z" fill="#2D3962"/>
<path d="M110.397 141.19C110.327 141.19 110.257 141.17 110.197 141.14C110.167 141.12 109.547 140.76 108.677 139.9C108.517 139.75 108.517 139.5 108.677 139.34C108.827 139.18 109.077 139.18 109.237 139.34C110.037 140.12 110.597 140.46 110.607 140.46C110.797 140.57 110.857 140.81 110.747 141C110.677 141.13 110.537 141.2 110.407 141.2L110.397 141.19Z" fill="#2D3962"/>
<path d="M128.477 149.18L130.037 154.95L136.197 153.88L140.747 151.89L138.627 145.78L128.477 149.18Z" fill="#F4D1BB"/>
<path d="M130.347 127.44C130.627 126.9 131.457 126.68 132.067 126.55C132.647 126.43 133.677 126.16 134.237 126.41C134.527 126.54 134.697 126.83 134.677 127.11C134.647 127.5 134.317 127.82 133.937 128.01C133.607 128.18 133.227 128.27 132.847 128.36C132.347 128.48 131.837 128.6 131.327 128.7C131.197 128.73 131.067 128.75 130.947 128.73C130.607 128.68 130.347 128.19 130.297 127.94C130.257 127.75 130.287 127.58 130.357 127.43L130.347 127.44Z" fill="#2D3962"/>
<path d="M125.397 128.99C124.877 128.68 124.057 128.93 123.467 129.14C122.907 129.34 121.897 129.66 121.557 130.16C121.377 130.43 121.397 130.76 121.557 130.99C121.787 131.31 122.237 131.4 122.667 131.36C123.037 131.33 123.407 131.21 123.777 131.08C124.267 130.92 124.767 130.75 125.247 130.57C125.367 130.53 125.487 130.48 125.587 130.39C125.847 130.17 125.807 129.61 125.727 129.37C125.657 129.19 125.547 129.06 125.407 128.97L125.397 128.99Z" fill="#2D3962"/>
<path d="M108.668 128.95C108.338 131.3 111.148 136.89 111.148 136.89L113.318 137.1L111.798 127.55C111.798 127.55 108.788 128.1 108.668 128.95Z" fill="#2D3962"/>
<path d="M143.146 117.62C144.616 119.77 145.406 128.23 145.406 128.23L143.596 129.44L139.736 117.88C139.736 117.88 142.666 116.91 143.146 117.62Z" fill="#2D3962"/>
<path d="M130.208 155.29C129.698 155.29 129.448 155.25 129.428 155.25C129.218 155.21 129.068 155.01 129.108 154.8C129.138 154.59 129.338 154.44 129.558 154.47C129.578 154.47 131.358 154.73 135.478 153.7C137.828 153.11 138.898 152.7 140.918 151.74C141.118 151.65 141.348 151.74 141.438 151.93C141.528 152.13 141.438 152.36 141.248 152.45C139.198 153.41 138.048 153.86 135.658 154.46C132.878 155.16 131.118 155.28 130.198 155.28L130.208 155.29Z" fill="#2D3962"/>
<path d="M129.246 138.38C128.846 138.38 128.456 138.33 128.086 138.22C127.876 138.16 127.756 137.94 127.816 137.73C127.876 137.52 128.096 137.4 128.306 137.46C128.986 137.65 129.776 137.62 130.536 137.38C131.236 137.15 131.826 136.76 132.266 136.25C132.406 136.08 132.656 136.07 132.826 136.21C132.996 136.35 133.006 136.6 132.866 136.77C132.336 137.39 131.616 137.86 130.786 138.13C130.286 138.3 129.766 138.38 129.256 138.38H129.246Z" fill="#2D3962"/>
<path d="M108.888 129.67L150.488 115.42C150.928 115.27 151.158 114.79 150.988 114.35C150.828 113.94 150.378 113.72 149.958 113.86L108.268 127.83C107.838 127.97 107.608 128.44 107.748 128.87L107.838 129.15C107.978 129.58 108.448 129.81 108.888 129.67Z" fill="#ACA0F2"/>
<path d="M121.878 110.97C116.788 112.52 106.388 119.59 108.328 128.31L142.398 116.6C142.398 116.6 138.368 105.96 121.878 110.97Z" fill="#ACA0F2"/>
<path d="M130.538 120.57C130.378 120.57 130.218 120.47 130.168 120.3C130.098 120.09 130.208 119.87 130.408 119.8L141.688 115.88C141.898 115.81 142.118 115.92 142.188 116.12C142.258 116.33 142.148 116.55 141.948 116.62L130.668 120.54C130.668 120.54 130.578 120.56 130.538 120.56V120.57Z" fill="#2D3962"/>
<path d="M108.547 128.16C108.387 128.16 108.227 128.06 108.177 127.89C108.107 127.68 108.217 127.46 108.417 127.39L123.437 122.2C123.637 122.13 123.867 122.24 123.937 122.44C124.007 122.65 123.897 122.87 123.697 122.94L108.677 128.13C108.677 128.13 108.587 128.15 108.547 128.15V128.16Z" fill="#2D3962"/>
</g>
<path d="M171.191 174.678L112.385 189.558L114.259 196.965L173.065 182.085L171.191 174.678Z" fill="#76ADA0"/>
<path d="M174.986 256.286L233.793 241.406L231.919 233.999L173.112 248.879L174.986 256.286Z" fill="#76ADA0"/>
<path d="M179.561 274.382L238.367 259.502L236.493 252.095L177.686 266.976L179.561 274.382Z" fill="#B7CAF7"/>
<path d="M184.143 292.476L242.949 277.596L241.075 270.189L182.269 285.069L184.143 292.476Z" fill="#FFB0D7"/>
<path d="M185.649 198.6C184.849 198.6 184.129 198.06 183.929 197.26C183.689 196.31 184.269 195.34 185.219 195.1L219.249 186.49C220.199 186.25 221.169 186.83 221.409 187.78C221.649 188.73 221.069 189.7 220.119 189.94L186.089 198.55C185.939 198.59 185.799 198.6 185.649 198.6Z" fill="#2D3962"/>
<path d="M188.848 211.23C188.058 211.23 187.328 210.69 187.128 209.89C186.888 208.94 187.468 207.97 188.418 207.73L222.448 199.12C223.398 198.88 224.368 199.46 224.608 200.41C224.848 201.36 224.268 202.33 223.318 202.57L189.288 211.18C189.138 211.22 188.998 211.23 188.848 211.23Z" fill="#2D3962"/>
<path d="M192.038 223.86C191.248 223.86 190.518 223.32 190.318 222.52C190.078 221.57 190.658 220.6 191.608 220.36L225.638 211.75C226.588 211.51 227.558 212.09 227.798 213.04C228.038 213.99 227.458 214.96 226.508 215.2L192.478 223.81C192.328 223.85 192.188 223.86 192.038 223.86Z" fill="#2D3962"/>
<path d="M75.4988 226.46C74.7088 226.46 73.9788 225.92 73.7788 225.12C73.5388 224.17 74.1188 223.2 75.0688 222.96L175.019 197.68C175.969 197.44 176.939 198.02 177.179 198.97C177.419 199.92 176.839 200.89 175.889 201.13L75.9388 226.41C75.7888 226.45 75.6488 226.46 75.4988 226.46Z" fill="#2D3962"/>
<path d="M78.6882 239.1C77.8982 239.1 77.1682 238.56 76.9682 237.76C76.7282 236.81 77.3082 235.84 78.2582 235.6L178.208 210.32C179.158 210.08 180.128 210.66 180.368 211.61C180.608 212.56 180.028 213.53 179.078 213.77L79.1282 239.05C78.9782 239.09 78.8382 239.1 78.6882 239.1Z" fill="#2D3962"/>
<path d="M81.8894 251.73C81.0994 251.73 80.3694 251.19 80.1694 250.39C79.9294 249.44 80.5094 248.47 81.4594 248.23L181.409 222.95C182.359 222.71 183.329 223.29 183.569 224.24C183.809 225.19 183.229 226.16 182.279 226.4L82.3294 251.68C82.1794 251.72 82.0394 251.73 81.8894 251.73Z" fill="#2D3962"/>
<path d="M88.0891 275.48C87.2891 275.48 86.5491 274.94 86.3491 274.12C86.1091 273.16 86.6891 272.18 87.6491 271.93L158.959 253.89C159.919 253.64 160.899 254.23 161.149 255.19C161.389 256.15 160.809 257.13 159.849 257.38L88.5391 275.42C88.3891 275.46 88.2391 275.48 88.0991 275.48H88.0891Z" fill="#2D3962"/>
<path d="M91.3781 288.49C90.5781 288.49 89.8381 287.95 89.6381 287.13C89.3981 286.17 89.9781 285.19 90.9381 284.94L162.248 266.9C163.208 266.65 164.188 267.24 164.438 268.2C164.678 269.16 164.098 270.14 163.138 270.39L91.8281 288.43C91.6781 288.47 91.5281 288.49 91.3881 288.49H91.3781Z" fill="#2D3962"/>
<path d="M94.6691 301.5C93.8691 301.5 93.1291 300.96 92.9291 300.14C92.6891 299.18 93.2692 298.2 94.2292 297.95L165.539 279.91C166.499 279.66 167.479 280.25 167.729 281.21C167.969 282.17 167.389 283.15 166.429 283.4L95.1192 301.44C94.9692 301.48 94.8191 301.5 94.6791 301.5H94.6691Z" fill="#2D3962"/>
<path d="M97.9582 314.51C97.1582 314.51 96.4182 313.97 96.2182 313.15C95.9782 312.19 96.5582 311.21 97.5182 310.96L128.538 303.11C129.498 302.86 130.478 303.45 130.728 304.41C130.968 305.37 130.388 306.35 129.428 306.6L98.4082 314.45C98.2582 314.49 98.1082 314.5 97.9682 314.5L97.9582 314.51Z" fill="#2D3962"/>
<path d="M287.025 100.413L215.53 326.204C213.576 332.375 216.995 338.961 223.165 340.915L386.407 392.604C392.578 394.558 399.165 391.14 401.119 384.969L472.614 159.178C474.568 153.007 471.149 146.42 464.978 144.467L301.736 92.7772C295.566 90.8233 288.979 94.2417 287.025 100.413Z" fill="white"/>
<g filter="url(#filter1_d_2245_4430)">
<path d="M287.025 100.413L215.53 326.204C213.576 332.375 216.995 338.961 223.165 340.915L386.407 392.604C392.578 394.558 399.165 391.14 401.119 384.969L472.614 159.178C474.568 153.007 471.149 146.42 464.978 144.467L301.736 92.7772C295.566 90.8233 288.979 94.2417 287.025 100.413Z" fill="white"/>
</g>
<path d="M400.408 193.017C411.169 174.021 404.493 149.899 385.497 139.139C366.501 128.378 342.379 135.054 331.618 154.05C320.858 173.046 327.534 197.168 346.53 207.929C365.526 218.689 389.648 212.013 400.408 193.017Z" fill="#B7CAF7"/>
<mask id="mask1_2245_4430" style="mask-type:luminance" maskUnits="userSpaceOnUse" x="326" y="133" width="80" height="81">
<path d="M400.408 193.017C411.169 174.021 404.493 149.899 385.497 139.139C366.501 128.378 342.379 135.054 331.618 154.05C320.858 173.046 327.534 197.168 346.53 207.929C365.526 218.689 389.648 212.013 400.408 193.017Z" fill="white"/>
</mask>
<g mask="url(#mask1_2245_4430)">
<path d="M333.299 206.97C333.299 206.97 341.219 187.28 349.869 185.36C353.539 184.54 357.959 185.52 362.799 187.01C367.669 188.51 372.099 190.54 374.229 192.6C379.909 198.09 375.939 220.32 375.939 220.32L333.309 206.98L333.299 206.97Z" fill="#504B99"/>
<path d="M341.098 209.29C341.048 209.29 340.988 209.28 340.938 209.25C340.738 209.16 340.648 208.93 340.738 208.73L343.878 201.82C343.968 201.62 344.208 201.54 344.398 201.62C344.598 201.71 344.688 201.94 344.598 202.14L341.458 209.05C341.388 209.19 341.248 209.28 341.098 209.28V209.29Z" fill="#2D3962"/>
<path d="M368.35 217.92C368.35 217.92 368.3 217.92 368.28 217.92C368.07 217.88 367.93 217.67 367.97 217.46L369.38 210C369.42 209.79 369.62 209.64 369.84 209.69C370.05 209.73 370.19 209.94 370.15 210.15L368.74 217.61C368.7 217.8 368.54 217.93 368.35 217.93V217.92Z" fill="#2D3962"/>
<path d="M364.388 185.64C343.078 179.35 352.458 157.4 353.558 154.98C353.628 154.82 353.698 154.66 353.758 154.5L353.878 154.19C355.398 150.25 359.658 148.11 363.728 149.23L381.568 154.14C385.698 155.28 388.278 159.4 387.468 163.6C385.498 173.8 379.878 190.21 364.388 185.63V185.64Z" fill="#E8B28E"/>
<path d="M373.779 169.9C373.429 170.67 372.529 171.01 371.759 170.67C370.989 170.32 370.649 169.42 370.989 168.65C371.339 167.88 372.239 167.54 373.009 167.88C373.779 168.23 374.119 169.13 373.779 169.9Z" fill="#2D3962"/>
<path d="M363.468 166.26C363.898 165.53 364.838 165.3 365.568 165.73C366.288 166.16 366.528 167.1 366.098 167.83C365.668 168.56 364.728 168.79 363.998 168.36C363.278 167.93 363.038 166.99 363.468 166.26Z" fill="#2D3962"/>
<path d="M367.899 174.72C367.519 174.72 367.129 174.67 366.749 174.58C365.829 174.36 364.999 173.88 364.409 173.24C364.259 173.08 364.279 172.83 364.439 172.68C364.599 172.53 364.849 172.55 364.999 172.71C365.479 173.24 366.169 173.63 366.939 173.81C367.649 173.98 368.369 173.96 368.999 173.76C369.209 173.69 369.429 173.81 369.499 174.02C369.569 174.23 369.449 174.45 369.239 174.52C368.819 174.65 368.369 174.72 367.909 174.72H367.899Z" fill="#2D3962"/>
<path d="M384.109 172.09C385.879 172.27 389.189 172.68 389.949 174.47C390.589 175.99 389.689 177.75 388.079 178.3C385.459 179.2 381.889 178.24 380.799 178.02" fill="#E8B28E"/>
<path d="M388.248 175.84C388.138 175.84 388.028 175.8 387.958 175.71C387.018 174.66 386.048 174.7 386.058 174.69C385.838 174.69 385.668 174.52 385.668 174.3C385.668 174.08 385.838 173.9 386.058 173.9C386.158 173.9 387.428 173.93 388.558 175.18C388.708 175.34 388.688 175.59 388.528 175.74C388.448 175.81 388.358 175.84 388.268 175.84H388.248Z" fill="#2D3962"/>
<path d="M385.898 176.64C385.758 176.64 385.628 176.57 385.548 176.44C385.438 176.25 385.508 176.01 385.698 175.9C385.698 175.9 386.278 175.58 387.088 174.81C387.248 174.66 387.498 174.67 387.648 174.83C387.798 174.99 387.788 175.24 387.628 175.39C386.738 176.23 386.098 176.58 386.078 176.59C386.018 176.62 385.958 176.64 385.888 176.64H385.898Z" fill="#2D3962"/>
<path d="M352.298 162.18C350.738 161.32 347.778 159.78 346.138 160.82C344.748 161.7 344.488 163.67 345.498 165.03C347.138 167.26 350.628 168.49 351.648 168.93" fill="#E8B28E"/>
<path d="M349.449 163.29C349.369 163.29 349.289 163.27 349.219 163.22C349.179 163.19 348.369 162.66 347.069 162.98C346.849 163.03 346.639 162.9 346.589 162.69C346.539 162.48 346.669 162.27 346.879 162.21C348.559 161.81 349.619 162.54 349.669 162.58C349.849 162.71 349.889 162.95 349.759 163.13C349.679 163.24 349.559 163.3 349.439 163.3L349.449 163.29Z" fill="#2D3962"/>
<path d="M348.47 164.98C348.33 164.98 348.19 164.9 348.12 164.76C348.11 164.73 347.79 164.09 347.53 162.89C347.48 162.68 347.62 162.47 347.83 162.42C348.05 162.38 348.25 162.51 348.3 162.72C348.54 163.81 348.83 164.4 348.83 164.41C348.93 164.6 348.85 164.84 348.65 164.94C348.59 164.97 348.53 164.98 348.47 164.98Z" fill="#2D3962"/>
<path d="M358.989 181.51L357.129 187.19L362.629 189.95L367.759 190.5L369.349 184.23L358.989 181.51Z" fill="#E8B28E"/>
<path d="M372.468 164.36C372.998 164.06 373.808 164.33 374.398 164.56C374.948 164.77 375.958 165.12 376.288 165.63C376.458 165.9 376.438 166.23 376.268 166.46C376.028 166.77 375.578 166.85 375.158 166.81C374.788 166.77 374.418 166.64 374.058 166.51C373.568 166.33 373.078 166.16 372.598 165.96C372.478 165.91 372.358 165.86 372.258 165.78C372.008 165.55 372.058 165 372.148 164.76C372.218 164.58 372.338 164.45 372.478 164.37L372.468 164.36Z" fill="#2D3962"/>
<path d="M367.478 162.94C367.208 162.39 366.388 162.15 365.778 162.01C365.208 161.87 364.178 161.58 363.618 161.82C363.318 161.94 363.148 162.23 363.168 162.51C363.188 162.9 363.518 163.23 363.888 163.43C364.218 163.61 364.598 163.71 364.968 163.81C365.468 163.94 365.968 164.08 366.478 164.19C366.608 164.22 366.728 164.25 366.858 164.23C367.198 164.19 367.468 163.7 367.528 163.46C367.578 163.27 367.548 163.1 367.478 162.95V162.94Z" fill="#2D3962"/>
<path d="M351.289 161.69L352.759 164.22L355.799 155.56L354.269 154.78C353.639 154.6 353.019 154.22 352.909 154.87L351.289 161.7V161.69Z" fill="#2D3962"/>
<path d="M385.258 172.19L383.168 173.4L385.178 163.08L386.128 162.93C387.188 162.76 387.928 163.74 387.708 164.79C386.988 168.29 385.248 172.19 385.248 172.19H385.258Z" fill="#2D3962"/>
<path d="M367.938 191.32C367.938 191.32 367.908 191.32 367.888 191.32C365.638 191.06 364.428 190.84 362.078 190.09C357.838 188.74 356.418 187.52 356.358 187.47C356.198 187.33 356.178 187.08 356.318 186.91C356.458 186.75 356.708 186.73 356.878 186.87C356.888 186.88 358.268 188.04 362.318 189.33C364.618 190.06 365.748 190.27 367.978 190.53C368.198 190.55 368.348 190.75 368.328 190.97C368.308 191.17 368.138 191.32 367.938 191.32Z" fill="#2D3962"/>
<path d="M352.949 155.01C352.729 154.91 354.259 148.85 362.259 146.03C366.729 144.45 372.489 145.22 376.999 147.25C390.239 153.21 387.709 164.69 387.669 164.69C386.269 164.74 384.949 164.44 383.349 164.26C382.859 164.2 381.919 162.05 381.919 162.05C381.919 162.05 380.589 163.87 379.949 163.75C375.489 162.94 370.699 161.56 366.409 160.13C365.989 159.99 365.729 157.75 365.729 157.75C365.729 157.75 364.309 159.41 363.889 159.26C363.129 158.99 362.399 158.73 361.699 158.47C361.169 158.28 360.899 155.57 360.899 155.57C360.899 155.57 358.929 157.43 358.369 157.21C355.079 155.93 352.969 154.99 352.969 154.99L352.949 155.01Z" fill="#2D3962"/>
</g>
<path d="M380.565 228.013L322.734 209.701L320.428 216.985L378.258 235.296L380.565 228.013Z" fill="#FFB0D7"/>
<path d="M316.434 283.627L258.604 265.315L256.297 272.599L314.127 290.911L316.434 283.627Z" fill="#76ADA0"/>
<path d="M310.803 301.427L252.973 283.115L250.666 290.399L308.497 308.711L310.803 301.427Z" fill="#FFB0D7"/>
<path d="M305.166 319.215L247.336 300.903L245.03 308.187L302.86 326.498L305.166 319.215Z" fill="#B7CAF7"/>
<path d="M306.97 232.73C306.79 232.73 306.61 232.7 306.43 232.65L272.97 222.05C272.03 221.75 271.51 220.75 271.81 219.82C272.11 218.88 273.1 218.36 274.04 218.66L307.5 229.26C308.44 229.56 308.95 230.56 308.66 231.49C308.42 232.25 307.72 232.73 306.96 232.73H306.97Z" fill="#2D3962"/>
<path d="M303.04 245.15C302.86 245.15 302.68 245.12 302.5 245.07L269.04 234.47C268.1 234.17 267.58 233.17 267.88 232.24C268.18 231.3 269.17 230.78 270.11 231.08L303.57 241.68C304.51 241.98 305.03 242.98 304.73 243.91C304.49 244.67 303.79 245.15 303.03 245.15H303.04Z" fill="#2D3962"/>
<path d="M299.1 257.57C298.92 257.57 298.74 257.54 298.56 257.49L265.1 246.89C264.16 246.59 263.64 245.59 263.94 244.66C264.24 243.72 265.23 243.2 266.17 243.5L299.63 254.1C300.57 254.4 301.09 255.4 300.79 256.33C300.55 257.09 299.85 257.57 299.09 257.57H299.1Z" fill="#2D3962"/>
<path d="M415.29 267.03C415.11 267.03 414.93 267 414.75 266.95L316.46 235.82C315.52 235.52 315.01 234.52 315.3 233.59C315.6 232.65 316.59 232.13 317.53 232.43L415.82 263.56C416.76 263.86 417.28 264.86 416.98 265.79C416.74 266.55 416.04 267.03 415.28 267.03H415.29Z" fill="#2D3962"/>
<path d="M411.36 279.46C411.18 279.46 411 279.43 410.82 279.38L312.53 248.25C311.59 247.95 311.07 246.95 311.37 246.02C311.67 245.08 312.66 244.56 313.6 244.86L411.89 275.99C412.83 276.29 413.35 277.29 413.05 278.22C412.81 278.98 412.11 279.46 411.35 279.46H411.36Z" fill="#2D3962"/>
<path d="M407.43 291.88C407.25 291.88 407.07 291.85 406.89 291.8L308.6 260.67C307.66 260.37 307.14 259.37 307.44 258.44C307.74 257.5 308.73 256.98 309.67 257.28L407.96 288.41C408.9 288.71 409.42 289.71 409.12 290.64C408.88 291.4 408.18 291.88 407.42 291.88H407.43Z" fill="#2D3962"/>
<path d="M399.841 315.23C399.661 315.23 399.481 315.2 399.301 315.15L329.181 292.94C328.231 292.64 327.711 291.63 328.011 290.68C328.311 289.73 329.321 289.21 330.271 289.51L400.391 311.72C401.341 312.02 401.861 313.03 401.561 313.98C401.321 314.75 400.611 315.24 399.841 315.24V315.23Z" fill="#2D3962"/>
<path d="M395.78 328.02C395.6 328.02 395.42 327.99 395.24 327.94L325.12 305.73C324.17 305.43 323.65 304.42 323.95 303.47C324.25 302.52 325.26 302 326.21 302.3L396.33 324.51C397.28 324.81 397.8 325.82 397.5 326.77C397.26 327.54 396.55 328.03 395.78 328.03V328.02Z" fill="#2D3962"/>
<path d="M391.729 340.81C391.549 340.81 391.369 340.78 391.189 340.73L321.069 318.52C320.119 318.22 319.599 317.21 319.899 316.26C320.199 315.31 321.209 314.79 322.159 315.09L392.279 337.3C393.229 337.6 393.749 338.61 393.449 339.56C393.209 340.33 392.499 340.82 391.729 340.82V340.81Z" fill="#2D3962"/>
<path d="M387.68 353.6C387.5 353.6 387.32 353.57 387.14 353.52L356.64 343.86C355.69 343.56 355.17 342.55 355.47 341.6C355.77 340.65 356.78 340.13 357.73 340.43L388.23 350.09C389.18 350.39 389.7 351.4 389.4 352.35C389.16 353.12 388.45 353.61 387.68 353.61V353.6Z" fill="#2D3962"/>
<path d="M326.629 352.3C326.449 352.3 326.269 352.27 326.089 352.22L295.769 342.62C294.819 342.32 294.299 341.31 294.599 340.36C294.899 339.41 295.909 338.89 296.859 339.19L327.179 348.79C328.129 349.09 328.649 350.1 328.349 351.05C328.109 351.82 327.399 352.31 326.629 352.31V352.3Z" fill="#2D3962"/>
<path d="M326.977 125.63H155.747C149.275 125.63 144.027 130.877 144.027 137.35V374.19C144.027 380.663 149.275 385.91 155.747 385.91H326.977C333.45 385.91 338.697 380.663 338.697 374.19V137.35C338.697 130.877 333.45 125.63 326.977 125.63Z" fill="white"/>
<g filter="url(#filter2_d_2245_4430)">
<path d="M326.977 125.63H155.747C149.275 125.63 144.027 130.877 144.027 137.35V374.19C144.027 380.663 149.275 385.91 155.747 385.91H326.977C333.45 385.91 338.697 380.663 338.697 374.19V137.35C338.697 130.877 333.45 125.63 326.977 125.63Z" fill="white"/>
</g>
<path d="M279.879 192.119C284.813 170.852 271.572 149.613 250.304 144.679C229.037 139.746 207.798 152.987 202.864 174.254C197.931 195.521 211.172 216.761 232.439 221.694C253.706 226.628 274.946 213.386 279.879 192.119Z" fill="#FFB0D7"/>
<mask id="mask2_2245_4430" style="mask-type:luminance" maskUnits="userSpaceOnUse" x="201" y="143" width="80" height="80">
<path d="M279.879 192.119C284.813 170.852 271.572 149.613 250.304 144.679C229.037 139.746 207.798 152.987 202.864 174.254C197.931 195.521 211.172 216.761 232.439 221.694C253.706 226.628 274.946 213.386 279.879 192.119Z" fill="white"/>
</mask>
<g mask="url(#mask2_2245_4430)">
<path d="M221.157 177.04C221.207 183.01 220.757 191.76 220.087 197.69C219.797 200.24 221.187 202.05 222.827 202.57C231.617 205.32 251.677 204.94 260.827 202.65C262.517 202.23 263.877 200.26 263.537 197.68C262.727 191.51 261.447 180.5 261.087 169.87C260.967 166.37 236.087 168.86 225.917 170.01C223.407 170.29 221.097 169.51 221.157 177.04Z" fill="#2D3962"/>
<path d="M222.727 224.01C222.727 224.01 224.167 205 231.057 201.01C233.977 199.31 238.027 198.95 242.577 198.91C247.147 198.87 251.497 199.41 253.877 200.6C260.227 203.76 262.857 223.87 262.857 223.87L222.727 224.01Z" fill="#B7CAF7"/>
<path d="M228.476 223.94C228.476 223.94 228.446 223.94 228.426 223.94C228.206 223.91 228.056 223.72 228.086 223.5L228.996 215.97C229.026 215.75 229.216 215.6 229.436 215.63C229.656 215.66 229.806 215.85 229.776 216.07L228.866 223.6C228.846 223.8 228.676 223.95 228.476 223.95V223.94Z" fill="#2D3962"/>
<path d="M257.056 223.94C256.856 223.94 256.686 223.79 256.666 223.59L255.756 216.06C255.726 215.84 255.886 215.65 256.096 215.62C256.296 215.59 256.506 215.75 256.536 215.96L257.446 223.49C257.476 223.71 257.316 223.9 257.106 223.93C257.086 223.93 257.076 223.93 257.056 223.93V223.94Z" fill="#2D3962"/>
<path d="M243.536 197.25C221.336 198 223.306 174.22 223.596 171.57C223.616 171.4 223.626 171.22 223.636 171.05L223.656 170.72C223.856 166.5 227.226 163.13 231.436 162.91L249.916 161.94C254.196 161.72 257.936 164.81 258.496 169.06C259.846 179.36 259.686 196.7 243.536 197.25Z" fill="#E8B28E"/>
<path d="M247.487 179.35C247.397 180.19 246.647 180.8 245.807 180.72C244.967 180.63 244.357 179.88 244.437 179.04C244.527 178.2 245.277 177.59 246.117 177.67C246.957 177.76 247.567 178.51 247.487 179.35Z" fill="#2D3962"/>
<path d="M236.546 179.15C236.726 178.33 237.546 177.8 238.366 177.99C239.186 178.17 239.706 178.99 239.526 179.81C239.346 180.63 238.526 181.16 237.706 180.97C236.886 180.79 236.356 179.97 236.546 179.15Z" fill="#2D3962"/>
<path d="M241.857 185.99C241.067 185.99 240.307 185.8 239.677 185.45C239.507 185.36 239.447 185.14 239.547 184.98C239.637 184.81 239.847 184.75 240.017 184.85C240.647 185.2 241.427 185.36 242.227 185.29C242.967 185.23 243.647 184.98 244.187 184.58C244.347 184.47 244.557 184.5 244.677 184.66C244.787 184.82 244.757 185.03 244.597 185.15C243.947 185.62 243.147 185.91 242.287 185.99C242.147 186 241.997 186.01 241.857 186.01V185.99Z" fill="#2D3962"/>
<path d="M257.977 178.17C259.717 177.78 262.987 177.13 264.267 178.59C265.357 179.83 265.047 181.78 263.707 182.81C261.507 184.49 257.817 184.7 256.707 184.84" fill="#E8B28E"/>
<path d="M262.966 180.4C262.906 180.4 262.846 180.39 262.796 180.35C261.586 179.66 260.636 179.98 260.626 179.98C260.436 180.04 260.246 179.95 260.186 179.76C260.126 179.58 260.216 179.38 260.406 179.32C260.456 179.3 261.666 178.9 263.146 179.74C263.316 179.84 263.376 180.05 263.276 180.21C263.216 180.32 263.096 180.39 262.976 180.39L262.966 180.4Z" fill="#2D3962"/>
<path d="M260.986 181.9C260.906 181.9 260.816 181.87 260.746 181.81C260.606 181.68 260.596 181.46 260.726 181.32C260.726 181.32 261.176 180.83 261.706 179.84C261.796 179.67 262.016 179.61 262.176 179.7C262.346 179.79 262.406 180 262.316 180.17C261.736 181.24 261.246 181.77 261.226 181.79C261.156 181.86 261.066 181.9 260.976 181.9H260.986Z" fill="#2D3962"/>
<path d="M224.667 178.8C222.917 178.48 219.627 177.95 218.397 179.46C217.357 180.74 217.737 182.68 219.117 183.66C221.377 185.26 225.077 185.33 226.187 185.42" fill="#E8B28E"/>
<path d="M219.756 181.21C219.636 181.21 219.526 181.15 219.456 181.05C219.356 180.89 219.406 180.67 219.566 180.57C221.006 179.67 222.236 180.03 222.286 180.04C222.466 180.1 222.576 180.29 222.516 180.47C222.456 180.65 222.266 180.76 222.086 180.7C222.086 180.7 221.096 180.43 219.936 181.15C219.876 181.19 219.816 181.2 219.756 181.2V181.21Z" fill="#2D3962"/>
<path d="M221.787 182.64C221.697 182.64 221.607 182.61 221.537 182.54C221.517 182.52 221.007 182.01 220.387 180.96C220.287 180.79 220.347 180.58 220.507 180.48C220.677 180.38 220.887 180.44 220.987 180.6C221.557 181.57 222.027 182.04 222.027 182.04C222.167 182.18 222.157 182.4 222.027 182.53C221.957 182.6 221.867 182.63 221.777 182.63L221.787 182.64Z" fill="#2D3962"/>
<path d="M237.547 195.03L237.137 201.01L248.267 200.8L247.507 194.36L237.547 195.03Z" fill="#E8B28E"/>
<path d="M244.597 174.92C244.977 174.51 245.757 174.53 246.327 174.56C246.867 174.59 247.837 174.62 248.257 174.97C248.477 175.16 248.557 175.45 248.467 175.7C248.347 176.03 247.977 176.23 247.597 176.31C247.257 176.38 246.907 176.36 246.557 176.35C246.087 176.33 245.607 176.31 245.137 176.28C245.017 176.28 244.897 176.26 244.797 176.21C244.517 176.08 244.407 175.58 244.417 175.36C244.427 175.18 244.497 175.04 244.597 174.93V174.92Z" fill="#2D3962"/>
<path d="M239.117 175.14C238.737 174.74 237.957 174.76 237.387 174.8C236.847 174.84 235.877 174.87 235.457 175.23C235.237 175.42 235.167 175.72 235.257 175.96C235.377 176.29 235.757 176.49 236.137 176.56C236.477 176.62 236.827 176.61 237.177 176.59C237.647 176.57 238.127 176.55 238.597 176.51C238.717 176.51 238.837 176.49 238.937 176.44C239.217 176.31 239.327 175.81 239.307 175.58C239.297 175.4 239.227 175.26 239.127 175.15L239.117 175.14Z" fill="#2D3962"/>
<path d="M240.807 173.52C243.377 173.43 245.707 173.3 247.797 173.15C248.327 173.11 255.087 172.48 255.487 172.43C258.347 172.09 260.117 171.76 261.027 171.59C261.377 171.52 261.607 171.14 261.507 170.77C258.867 160.55 250.157 154.9 239.907 155.27C229.687 155.64 222.907 162.04 220.987 172.38C220.897 172.85 221.197 173.31 221.637 173.39C222.737 173.6 223.777 173.73 229.747 173.74C229.747 173.74 238.827 173.58 240.787 173.51L240.807 173.52Z" fill="#2D3962"/>
<path d="M243.046 201.53H242.946C238.496 201.53 236.776 200.79 236.706 200.76C236.506 200.67 236.416 200.44 236.506 200.24C236.596 200.04 236.826 199.95 237.026 200.03C237.046 200.03 238.706 200.73 242.956 200.73C245.396 200.73 246.516 200.59 248.716 200.16C248.936 200.12 249.136 200.26 249.176 200.47C249.216 200.68 249.076 200.89 248.866 200.93C246.676 201.36 245.456 201.51 243.056 201.51L243.046 201.53Z" fill="#2D3962"/>
</g>
<path d="M271.697 230.77H211.037V238.41H271.697V230.77Z" fill="#B7CAF7"/>
<path d="M227.338 303.14H166.678V310.78H227.338V303.14Z" fill="#FFB0D7"/>
<path d="M227.338 321.8H166.678V329.44H227.338V321.8Z" fill="#76ADA0"/>
<path d="M227.338 340.47H166.678V348.11H227.338V340.47Z" fill="#B7CAF7"/>
<path d="M202.427 257.54H167.327C166.347 257.54 165.547 256.74 165.547 255.76C165.547 254.78 166.347 253.98 167.327 253.98H202.427C203.407 253.98 204.207 254.78 204.207 255.76C204.207 256.74 203.407 257.54 202.427 257.54Z" fill="#2D3962"/>
<path d="M202.427 270.57H167.327C166.347 270.57 165.547 269.77 165.547 268.79C165.547 267.81 166.347 267.01 167.327 267.01H202.427C203.407 267.01 204.207 267.81 204.207 268.79C204.207 269.77 203.407 270.57 202.427 270.57Z" fill="#2D3962"/>
<path d="M202.427 283.6H167.327C166.347 283.6 165.547 282.8 165.547 281.82C165.547 280.84 166.347 280.04 167.327 280.04H202.427C203.407 280.04 204.207 280.84 204.207 281.82C204.207 282.8 203.407 283.6 202.427 283.6Z" fill="#2D3962"/>
<path d="M316.058 257.54H212.958C211.978 257.54 211.178 256.74 211.178 255.76C211.178 254.78 211.978 253.98 212.958 253.98H316.058C317.038 253.98 317.838 254.78 317.838 255.76C317.838 256.74 317.038 257.54 316.058 257.54Z" fill="#2D3962"/>
<path d="M316.058 270.57H212.958C211.978 270.57 211.178 269.77 211.178 268.79C211.178 267.81 211.978 267.01 212.958 267.01H316.058C317.038 267.01 317.838 267.81 317.838 268.79C317.838 269.77 317.038 270.57 316.058 270.57Z" fill="#2D3962"/>
<path d="M316.058 283.6H212.958C211.978 283.6 211.178 282.8 211.178 281.82C211.178 280.84 211.978 280.04 212.958 280.04H316.058C317.038 280.04 317.838 280.84 317.838 281.82C317.838 282.8 317.038 283.6 316.058 283.6Z" fill="#2D3962"/>
<path d="M315.856 308.15H242.296C241.306 308.15 240.496 307.34 240.496 306.35C240.496 305.36 241.306 304.55 242.296 304.55H315.856C316.846 304.55 317.656 305.36 317.656 306.35C317.656 307.34 316.846 308.15 315.856 308.15Z" fill="#2D3962"/>
<path d="M315.856 321.57H242.296C241.306 321.57 240.496 320.76 240.496 319.77C240.496 318.78 241.306 317.97 242.296 317.97H315.856C316.846 317.97 317.656 318.78 317.656 319.77C317.656 320.76 316.846 321.57 315.856 321.57Z" fill="#2D3962"/>
<path d="M315.856 334.98H242.296C241.306 334.98 240.496 334.17 240.496 333.18C240.496 332.19 241.306 331.38 242.296 331.38H315.856C316.846 331.38 317.656 332.19 317.656 333.18C317.656 334.17 316.846 334.98 315.856 334.98Z" fill="#2D3962"/>
<path d="M315.857 348.4H283.857C282.867 348.4 282.057 347.59 282.057 346.6C282.057 345.61 282.867 344.8 283.857 344.8H315.857C316.847 344.8 317.657 345.61 317.657 346.6C317.657 347.59 316.847 348.4 315.857 348.4Z" fill="#2D3962"/>
<path d="M257.268 365.59H225.468C224.478 365.59 223.668 364.78 223.668 363.79C223.668 362.8 224.478 361.99 225.468 361.99H257.268C258.258 361.99 259.068 362.8 259.068 363.79C259.068 364.78 258.258 365.59 257.268 365.59Z" fill="#2D3962"/>
<path d="M67.4773 469.07C72.5173 474.11 80.6873 474.11 85.7273 469.07L136.277 418.52L118.027 400.27L67.4773 450.82C62.4373 455.86 62.4373 464.03 67.4773 469.07Z" fill="#7658D6"/>
<path d="M127.357 375.93L117.827 385.46C113.797 389.49 113.797 396.03 117.827 400.06L136.487 418.72C140.517 422.75 147.057 422.75 151.087 418.72L160.617 409.19L127.357 375.93Z" fill="white"/>
<g opacity="0.43">
<path d="M190.777 402.59C222.158 402.59 247.597 377.151 247.597 345.77C247.597 314.389 222.158 288.95 190.777 288.95C159.396 288.95 133.957 314.389 133.957 345.77C133.957 377.151 159.396 402.59 190.777 402.59Z" fill="#D8ECFE"/>
</g>
<path d="M190.777 276.02C152.257 276.02 121.027 307.25 121.027 345.77C121.027 384.29 152.257 415.52 190.777 415.52C229.297 415.52 260.527 384.29 260.527 345.77C260.527 307.25 229.297 276.02 190.777 276.02ZM190.777 402.59C159.397 402.59 133.957 377.15 133.957 345.77C133.957 314.39 159.397 288.95 190.777 288.95C222.157 288.95 247.597 314.39 247.597 345.77C247.597 377.15 222.157 402.59 190.777 402.59Z" fill="#2D3962"/>
<path d="M343.749 368.91H308.269C302.901 368.91 298.549 373.262 298.549 378.63V414.11C298.549 419.478 302.901 423.83 308.269 423.83H343.749C349.117 423.83 353.469 419.478 353.469 414.11V378.63C353.469 373.262 349.117 368.91 343.749 368.91Z" fill="#76ADA0"/>
<path d="M323.459 411.38C322.899 411.38 322.379 411.12 322.039 410.68L311.749 397.36C311.139 396.57 311.289 395.44 312.069 394.84C312.859 394.23 313.989 394.38 314.589 395.16L323.289 406.42L336.449 385.03C336.969 384.19 338.079 383.92 338.929 384.44C339.779 384.96 340.039 386.07 339.519 386.92L324.989 410.53C324.679 411.03 324.139 411.35 323.549 411.38C323.519 411.38 323.489 411.38 323.449 411.38H323.459Z" fill="#2D3962"/>
<path d="M339.238 377.81C343.328 369.83 348.148 358.51 348.148 358.51L359.388 366.26L365.098 378.2C365.098 378.2 353.398 381.36 344.778 384.22L339.258 377.81H339.238Z" fill="#FCD197"/>
<path d="M339.819 385.82C335.459 387.18 336.189 383.75 336.899 382.38C337.469 381.27 338.289 379.67 339.239 377.81L344.759 384.22C342.789 384.87 341.069 385.44 339.819 385.83V385.82Z" fill="#2D3962"/>
<path d="M427.469 301.46C428.989 300.15 428.929 297.6 427.349 295.77C425.769 293.93 423.249 293.51 421.739 294.81L348.809 357.7C347.289 359.01 347.349 361.56 348.929 363.39C350.509 365.23 353.029 365.65 354.539 364.35L427.469 301.46Z" fill="#7658D6"/>
<path d="M433.199 308.11C434.719 306.8 434.659 304.25 433.079 302.42C431.499 300.58 428.979 300.15 427.469 301.46L354.539 364.35C353.019 365.66 353.079 368.21 354.659 370.04C356.239 371.88 358.759 372.3 360.269 371L433.199 308.11Z" fill="#2D3962"/>
<path d="M438.939 314.76C440.459 313.45 440.399 310.9 438.819 309.07C437.239 307.23 434.719 306.81 433.209 308.11L360.279 371C358.759 372.31 358.819 374.86 360.399 376.69C361.979 378.53 364.499 378.95 366.009 377.65L438.939 314.76Z" fill="#7658D6"/>
<path d="M424.848 292.165L419.971 296.371L437.171 316.319L442.049 312.113L424.848 292.165Z" fill="white"/>
<path d="M442.05 312.08L424.85 292.13L429.94 287.74C430.01 287.68 430.09 287.61 430.16 287.54C433.98 284.24 440.94 286.03 445.69 291.54C450.44 297.05 451.19 304.19 447.37 307.49C447.29 307.56 447.21 307.62 447.13 307.68L442.04 312.08H442.05Z" fill="#F4B04E"/>
</g>
<defs>
<filter id="filter0_d_2245_4430" x="8.14648" y="48.8583" width="271.533" height="319.043" filterUnits="userSpaceOnUse" color-interpolation-filters="sRGB">
<feFlood flood-opacity="0" result="BackgroundImageFix"/>
<feColorMatrix in="SourceAlpha" type="matrix" values="0 0 0 0 0 0 0 0 0 0 0 0 0 0 0 0 0 0 127 0" result="hardAlpha"/>
<feOffset dx="-4" dy="2"/>
<feGaussianBlur stdDeviation="6"/>
<feComposite in2="hardAlpha" operator="out"/>
<feColorMatrix type="matrix" values="0 0 0 0 0 0 0 0 0 0 0 0 0 0 0 0 0 0 0.25 0"/>
<feBlend mode="normal" in2="BackgroundImageFix" result="effect1_dropShadow_2245_4430"/>
<feBlend mode="normal" in="SourceGraphic" in2="effect1_dropShadow_2245_4430" result="shape"/>
</filter>
<filter id="filter1_d_2245_4430" x="208.98" y="86.2273" width="278.184" height="320.927" filterUnits="userSpaceOnUse" color-interpolation-filters="sRGB">
<feFlood flood-opacity="0" result="BackgroundImageFix"/>
<feColorMatrix in="SourceAlpha" type="matrix" values="0 0 0 0 0 0 0 0 0 0 0 0 0 0 0 0 0 0 127 0" result="hardAlpha"/>
<feOffset dx="4" dy="4"/>
<feGaussianBlur stdDeviation="5"/>
<feComposite in2="hardAlpha" operator="out"/>
<feColorMatrix type="matrix" values="0 0 0 0 0 0 0 0 0 0 0 0 0 0 0 0 0 0 0.25 0"/>
<feBlend mode="normal" in2="BackgroundImageFix" result="effect1_dropShadow_2245_4430"/>
<feBlend mode="normal" in="SourceGraphic" in2="effect1_dropShadow_2245_4430" result="shape"/>
</filter>
<filter id="filter2_d_2245_4430" x="132.027" y="113.63" width="218.67" height="284.28" filterUnits="userSpaceOnUse" color-interpolation-filters="sRGB">
<feFlood flood-opacity="0" result="BackgroundImageFix"/>
<feColorMatrix in="SourceAlpha" type="matrix" values="0 0 0 0 0 0 0 0 0 0 0 0 0 0 0 0 0 0 127 0" result="hardAlpha"/>
<feOffset/>
<feGaussianBlur stdDeviation="6"/>
<feComposite in2="hardAlpha" operator="out"/>
<feColorMatrix type="matrix" values="0 0 0 0 0 0 0 0 0 0 0 0 0 0 0 0 0 0 0.25 0"/>
<feBlend mode="normal" in2="BackgroundImageFix" result="effect1_dropShadow_2245_4430"/>
<feBlend mode="normal" in="SourceGraphic" in2="effect1_dropShadow_2245_4430" result="shape"/>
</filter>
<clipPath id="clip0_2245_4430">
<rect width="500" height="500" fill="white"/>
</clipPath>
</defs>
</svg>
